<svg viewBox="0 0 800 400" xmlns="http://www.w3.org/2000/svg">
  <!-- Disk outline -->
  <rect x="50" y="50" width="700" height="300" fill="none" stroke="black" stroke-width="2"/>
  
  <!-- Cylinder groups -->
  <g>
    <!-- Group 1 -->
    <rect x="70" y="70" width="150" height="260" fill="#f0f0f0" stroke="#666"/>
    <text x="145" y="100" text-anchor="middle" font-size="14">Cylinder Group 1</text>
    
    <!-- Group components -->
    <rect x="80" y="120" width="130" height="40" fill="#ffcccc" stroke="#666"/>
    <text x="145" y="145" text-anchor="middle" font-size="12">Superblock</text>
    
    <rect x="80" y="170" width="130" height="40" fill="#cce5ff" stroke="#666"/>
    <text x="145" y="195" text-anchor="middle" font-size="12">Inode Blocks</text>
    
    <rect x="80" y="220" width="130" height="40" fill="#d4edda" stroke="#666"/>
    <text x="145" y="245" text-anchor="middle" font-size="12">Data Blocks</text>
    
    <rect x="80" y="270" width="130" height="40" fill="#fff3cd" stroke="#666"/>
    <text x="145" y="295" text-anchor="middle" font-size="12">Bitmap</text>
  </g>
  
  <!-- Replicate for other groups -->
  <g transform="translate(180,0)">
    <rect x="70" y="70" width="150" height="260" fill="#f0f0f0" stroke="#666"/>
    <text x="145" y="100" text-anchor="middle" font-size="14">Cylinder Group 2</text>
    
    <rect x="80" y="120" width="130" height="40" fill="#ffcccc" stroke="#666"/>
    <rect x="80" y="170" width="130" height="40" fill="#cce5ff" stroke="#666"/>
    <rect x="80" y="220" width="130" height="40" fill="#d4edda" stroke="#666"/>
    <rect x="80" y="270" width="130" height="40" fill="#fff3cd" stroke="#666"/>
  </g>
  
  <g transform="translate(360,0)">
    <rect x="70" y="70" width="150" height="260" fill="#f0f0f0" stroke="#666"/>
    <text x="145" y="100" text-anchor="middle" font-size="14">Cylinder Group 3</text>
    
    <rect x="80" y="120" width="130" height="40" fill="#ffcccc" stroke="#666"/>
    <rect x="80" y="170" width="130" height="40" fill="#cce5ff" stroke="#666"/>
    <rect x="80" y="220" width="130" height="40" fill="#d4edda" stroke="#666"/>
    <rect x="80" y="270" width="130" height="40" fill="#fff3cd" stroke="#666"/>
  </g>
  
  <!-- Legend -->
  <g transform="translate(600,100)">
    <text x="0" y="0" font-size="14" font-weight="bold">Legend</text>
    
    <rect x="0" y="20" width="20" height="20" fill="#ffcccc" stroke="#666"/>
    <text x="30" y="35" font-size="12">Superblock</text>
    
    <rect x="0" y="50" width="20" height="20" fill="#cce5ff" stroke="#666"/>
    <text x="30" y="65" font-size="12">Inodes</text>
    
    <rect x="0" y="80" width="20" height="20" fill="#d4edda" stroke="#666"/>
    <text x="30" y="95" font-size="12">Data Blocks</text>
    
    <rect x="0" y="110" width="20" height="20" fill="#fff3cd" stroke="#666"/>
    <text x="30" y="125" font-size="12">Bitmap</text>
  </g>
</svg>
